# xmcd CD database file
#
# Track frame offsets:
#	150
#	15179
#	34520
#	53974
#	65465
#	78617
#	93289
#	112552
#	129498
#	149036
#	166291
#
# Disc length: 2486 seconds
#
# Revision: 0
# Processed by: cddbd v1.5.2PL0 Copyright (c) Steve Scherf et al.
# Submitted via: CDex 1.81
#
DISCID=8409b40b
DTITLE=Dapper - As...
DYEAR=2017
DGENRE=Blues
TTITLE0=Back
TTITLE1=All Mixed Up
TTITLE2=Circumstance
TTITLE3=The Girl from Illinois
TTITLE4=The Fender Song
TTITLE5=Sunday Morning
TTITLE6=Miles from Home
TTITLE7=Magic Smile
TTITLE8=Cross to Bear
TTITLE9=Worn Out
TTITLE10=This Ship Has Sailed
EXTD=YEAR: 2017
EXTT0=
EXTT1=
EXTT2=
EXTT3=
EXTT4=
EXTT5=
EXTT6=
EXTT7=
EXTT8=
EXTT9=
EXTT10=
PLAYORDER=
